<svg xmlns="http://www.w3.org/2000/svg" version="1.1" xmlns:xlink="http://www.w3.org/1999/xlink" xmlns:svgjs="http://svgjs.dev/svgjs" width="2000" height="1136" viewBox="0 0 2000 1136"><g transform="matrix(1,0,0,1,-1.2120236296239,0.6342440131642206)"><svg viewBox="0 0 396 225" data-background-color="#ffffff" preserveAspectRatio="xMidYMid meet" height="1136" width="2000" xmlns="http://www.w3.org/2000/svg" xmlns:xlink="http://www.w3.org/1999/xlink"><g id="tight-bounds" transform="matrix(1,0,0,1,0.23998075054549872,-0.12562051317073042)"><svg viewBox="0 0 395.52 225.25124102634146" height="225.25124102634146" width="395.52"><g><svg viewBox="0 0 395.52 225.25124102634146" height="225.25124102634146" width="395.52"><g><svg viewBox="0 0 395.52 225.25124102634146" height="225.25124102634146" width="395.52"><g id="textblocktransform"><svg viewBox="0 0 395.52 225.25124102634146" height="225.25124102634146" width="395.52" id="textblock"><g><svg viewBox="0 0 395.52 121.48975609756097" height="121.48975609756097" width="395.52"><g transform="matrix(1,0,0,1,0,0)"><svg width="395.52" viewBox="1.100000023841858 -35.95000076293945 131.1899871826172 40.29999923706055" height="121.48975609756097" data-palette-color="#ff0033"><path d="M10.95 4.35L10.95 4.35Q7.4 4.35 5.23 2.58 3.05 0.8 2.08-2 1.1-4.8 1.1-7.85L1.1-7.85Q1.1-11.8 2.3-15.8 3.5-19.8 5.58-23.43 7.65-27.05 10.3-29.88 12.95-32.7 15.88-34.33 18.8-35.95 21.65-35.95L21.65-35.95Q23.7-35.95 24.98-34.98 26.25-34 26.25-31.65L26.25-31.65Q26.25-30.2 25.75-28.38 25.25-26.55 24.4-24.88 23.55-23.2 22.53-22.1 21.5-21 20.45-21L20.45-21Q20.05-21 19.63-21.25 19.2-21.5 18.9-22.15L18.9-22.15Q19.65-23 20.58-24.28 21.5-25.55 22.35-26.98 23.2-28.4 23.73-29.78 24.25-31.15 24.25-32.2L24.25-32.2Q24.25-33.2 23.68-33.83 23.1-34.45 21.8-34.45L21.8-34.45Q19.65-34.45 17.32-32.7 15-30.95 12.83-28.03 10.65-25.1 8.9-21.5 7.15-17.9 6.13-14.15 5.1-10.4 5.1-7L5.1-7Q5.1-4.55 5.8-2.33 6.5-0.1 8.08 1.28 9.65 2.65 12.15 2.65L12.15 2.65Q14.8 2.65 17.43 1.15 20.05-0.35 22.25-2.8 24.45-5.25 25.75-8.1L25.75-8.1 26.45-7.6Q24.8-4.35 22.45-1.63 20.1 1.1 17.2 2.73 14.3 4.35 10.95 4.35ZM28.3 1.3L28.3 1.3Q26.35 1.3 25.4 0.08 24.45-1.15 24.45-2.9L24.45-2.9Q24.45-4.05 24.87-5.8 25.3-7.55 26-9.47 26.7-11.4 27.62-13.1 28.55-14.8 29.6-15.88 30.65-16.95 31.65-16.95L31.65-16.95Q32.1-16.95 32.42-16.68 32.75-16.4 32.75-15.85L32.75-15.85Q32.75-15.25 31.97-13.9 31.2-12.55 30.15-10.8 29.1-9.05 28.32-7.13 27.55-5.2 27.55-3.45L27.55-3.45Q27.55-1.65 28.15-1.05 28.75-0.45 30-0.45L30-0.45Q31.7-0.45 33.62-2.15 35.55-3.85 37.7-8.1L37.7-8.1 38.15-7.6Q36.7-3.3 33.97-1 31.25 1.3 28.3 1.3ZM34.3-21.6L34.3-21.6Q33.5-21.6 32.87-22 32.25-22.4 32.25-23.25L32.25-23.25Q32.25-24.3 33.47-25.08 34.7-25.85 35.9-25.85L35.9-25.85Q36.65-25.85 37.1-25.5 37.55-25.15 37.55-24.3L37.55-24.3Q37.55-23.35 36.52-22.48 35.5-21.6 34.3-21.6ZM52.9 1L52.9 1Q51.15 1 50.27 0.1 49.4-0.8 49.4-2.2L49.4-2.2Q49.4-3.25 49.77-4.4 50.15-5.55 50.5-6.78 50.85-8 50.85-9.15L50.85-9.15Q50.85-10.55 50.27-11.08 49.7-11.6 48.85-11.6L48.85-11.6Q47.3-11.6 45.7-10.33 44.1-9.05 42.6-7.08 41.1-5.1 39.8-3 38.5-0.9 37.5 0.75L37.5 0.75Q36.7 0.75 35.97 0.48 35.25 0.2 34.85-0.35L34.85-0.35Q34.85-0.6 35.37-1.9 35.9-3.2 36.6-5.1 37.3-7 37.85-9 38.4-11 38.4-12.65L38.4-12.65Q38.7-13 39.35-13.35 40-13.7 40.7-13.7L40.7-13.7Q42.05-13.7 42.05-12.4L42.05-12.4Q42.05-11.6 41.6-9.73 41.15-7.85 40.45-5.8L40.45-5.8Q41.8-7.85 43.47-9.88 45.15-11.9 47.05-13.25 48.95-14.6 50.85-14.6L50.85-14.6Q52.8-14.6 53.67-13.2 54.55-11.8 54.55-10.1L54.55-10.1Q54.55-8.55 54.05-7.23 53.55-5.9 53.02-4.67 52.5-3.45 52.5-2.2L52.5-2.2Q52.5-1.15 52.92-0.73 53.35-0.3 54-0.3L54-0.3Q55.25-0.3 56.5-1.48 57.75-2.65 58.92-4.45 60.1-6.25 61-8.1L61-8.1 61.55-7.45Q60.5-5 59.2-3.1 57.9-1.2 56.35-0.1 54.8 1 52.9 1ZM65.44 2.2L65.44 2.2Q62.39 2.2 60.87 0.53 59.34-1.15 59.34-3.6L59.34-3.6Q59.34-5.85 60.47-8.35 61.59-10.85 63.47-13.05 65.34-15.25 67.59-16.63 69.84-18 72.04-18L72.04-18Q73.19-18 74.17-17.4 75.14-16.8 75.14-14.95L75.14-14.95Q75.14-13.05 74.02-11.38 72.89-9.7 71.07-8.4 69.24-7.1 67.07-6.28 64.89-5.45 62.74-5.25L62.74-5.25Q62.64-4.75 62.59-4.3 62.54-3.85 62.54-3.45L62.54-3.45Q62.54-2.7 62.72-1.95 62.89-1.2 63.34-0.58 63.79 0.05 64.57 0.4 65.34 0.75 66.49 0.75L66.49 0.75Q68.64 0.75 70.74-0.48 72.84-1.7 74.64-3.7 76.44-5.7 77.69-8.1L77.69-8.1 78.29-7.65Q76.94-4.65 74.87-2.45 72.79-0.25 70.37 0.98 67.94 2.2 65.44 2.2ZM62.99-6.2L62.99-6.2Q64.34-6.65 66.04-7.53 67.74-8.4 69.32-9.6 70.89-10.8 71.92-12.25 72.94-13.7 72.94-15.3L72.94-15.3Q72.94-15.85 72.74-16.15 72.54-16.45 71.89-16.45L71.89-16.45Q70.69-16.45 69.34-15.53 67.99-14.6 66.74-13.1 65.49-11.6 64.49-9.8 63.49-8 62.99-6.2ZM101.89 1.55L101.89 1.55Q100.14 1.55 99.34 0.48 98.54-0.6 98.54-2.1L98.54-2.1Q98.54-3.35 98.92-4.6 99.29-5.85 99.67-7.05 100.04-8.25 100.04-9.2L100.04-9.2Q100.04-10.2 99.59-10.6 99.14-11 98.59-11L98.59-11Q97.34-11 95.87-9.05 94.39-7.1 92.04-3.55L92.04-3.55Q91.24-2.35 90.69-1.13 90.14 0.1 89.64 1.1L89.64 1.1Q89.24 1.1 88.64 1 88.04 0.9 87.57 0.68 87.09 0.45 87.09 0.1L87.09 0.1Q87.09-0.25 87.57-1.58 88.04-2.9 88.67-4.67 89.29-6.45 89.77-8.28 90.24-10.1 90.24-11.4L90.24-11.4Q90.24-12.25 89.97-12.78 89.69-13.3 88.99-13.3L88.99-13.3Q87.89-13.3 86.34-11.98 84.79-10.65 83.14-8.5 81.49-6.35 80.02-3.78 78.54-1.2 77.64 1.35L77.64 1.35Q77.19 1.35 76.54 1.2 75.89 1.05 75.42 0.8 74.94 0.55 74.94 0.3L74.94 0.3Q74.94 0 75.47-1.48 75.99-2.95 76.67-5.03 77.34-7.1 77.87-9.25 78.39-11.4 78.39-13.05L78.39-13.05Q78.69-13.4 79.34-13.75 79.99-14.1 80.69-14.1L80.69-14.1Q81.39-14.1 81.72-13.75 82.04-13.4 82.04-12.8L82.04-12.8Q82.04-12.15 81.67-10.58 81.29-9 80.74-7.1L80.74-7.1Q81.74-8.7 83.02-10.38 84.29-12.05 85.69-13.45 87.09-14.85 88.52-15.73 89.94-16.6 91.29-16.6L91.29-16.6Q92.84-16.6 93.42-15.48 93.99-14.35 93.99-12.8L93.99-12.8Q93.99-11.55 93.72-10.18 93.44-8.8 93.09-7.63 92.74-6.45 92.44-5.75L92.44-5.75Q93.49-7.65 94.77-9.43 96.04-11.2 97.54-12.33 99.04-13.45 100.74-13.45L100.74-13.45Q102.34-13.45 102.97-12.5 103.59-11.55 103.59-10.25L103.59-10.25Q103.59-8.95 103.14-7.4 102.69-5.85 102.22-4.4 101.74-2.95 101.74-1.9L101.74-1.9Q101.74-1.25 102.07-0.73 102.39-0.2 103.24-0.2L103.24-0.2Q104.64-0.2 105.87-1.48 107.09-2.75 108.14-4.58 109.19-6.4 109.94-8.1L109.94-8.1 110.54-7.4Q109.74-5.3 108.49-3.23 107.24-1.15 105.57 0.2 103.89 1.55 101.89 1.55ZM111.39 2.35L111.39 2.35Q109.84 2.35 108.76 1.33 107.69 0.3 107.69-1.8L107.69-1.8Q107.69-3.6 108.49-5.68 109.29-7.75 110.69-9.78 112.09-11.8 113.86-13.48 115.64-15.15 117.61-16.15 119.59-17.15 121.54-17.15L121.54-17.15Q123.49-17.15 124.79-16.13 126.09-15.1 126.09-13.4L126.09-13.4Q126.09-12.15 125.41-11.7 124.74-11.25 123.64-11.25L123.64-11.25Q123.74-11.65 123.81-12.13 123.89-12.6 123.89-13L123.89-13Q123.89-14.15 123.34-14.98 122.79-15.8 121.44-15.8L121.44-15.8Q120.04-15.8 118.59-14.83 117.14-13.85 115.79-12.23 114.44-10.6 113.39-8.7 112.34-6.8 111.74-4.95 111.14-3.1 111.14-1.65L111.14-1.65Q111.14 0.3 112.49 0.3L112.49 0.3Q113.64 0.3 114.99-0.78 116.34-1.85 117.76-3.53 119.19-5.2 120.49-7 121.79-8.8 122.79-10.3L122.79-10.3Q122.99-10.6 123.04-10.6L123.04-10.6Q123.34-10.55 123.81-10.4 124.29-10.25 124.64-10 124.99-9.75 124.99-9.35L124.99-9.35Q124.99-8.9 124.54-8.13 124.09-7.35 123.54-6.35 122.99-5.35 122.54-4.33 122.09-3.3 122.09-2.4L122.09-2.4Q122.09-1.65 122.49-0.93 122.89-0.2 123.79-0.2L123.79-0.2Q125.14-0.2 127.34-2.18 129.54-4.15 131.79-8.1L131.79-8.1 132.29-7.6Q131.24-4.9 129.59-2.85 127.94-0.8 126.06 0.35 124.19 1.5 122.39 1.5L122.39 1.5Q120.54 1.5 119.66 0.4 118.79-0.7 118.79-2L118.79-2Q118.79-2.3 118.84-2.68 118.89-3.05 118.94-3.45L118.94-3.45Q116.79-0.55 115.01 0.9 113.24 2.35 111.39 2.35Z" opacity="1" transform="matrix(1,0,0,1,0,0)" fill="#ff0033" class="wordmark-text-0" data-fill-palette-color="primary" id="text-0"></path></svg></g></svg></g><g transform="matrix(1,0,0,1,164.18169853658537,150.17057175804877)"><svg viewBox="0 0 231.3383014634146 75.08066926829268" height="75.08066926829268" width="231.3383014634146"><g transform="matrix(1,0,0,1,0,0)"><svg width="231.3383014634146" viewBox="3.450000047683716 -35.79999923706055 144.19000244140625 46.79999923706055" height="75.08066926829268" data-palette-color="#aaaaaa"><path d="M15.25 0.6L15.25 0.6Q11.8 0.6 9.15-1.03 6.5-2.65 4.98-5.58 3.45-8.5 3.45-12.45L3.45-12.45Q3.45-16.4 4.95-19.3 6.45-22.2 9.13-23.8 11.8-25.4 15.35-25.4L15.35-25.4Q18.95-25.4 21.45-23.78 23.95-22.15 25.25-19.55 26.55-16.95 26.55-13.95L26.55-13.95Q26.55-13.45 26.55-12.9 26.55-12.35 26.5-11.65L26.5-11.65 6.85-11.65Q7-8.6 8.22-6.63 9.45-4.65 11.33-3.68 13.2-2.7 15.25-2.7L15.25-2.7Q18.3-2.7 19.98-3.98 21.65-5.25 22.45-7.45L22.45-7.45 25.85-7.45Q25.05-4.1 22.43-1.75 19.8 0.6 15.25 0.6ZM15.2-22.2L15.2-22.2Q12.05-22.2 9.68-20.25 7.3-18.3 6.9-14.85L6.9-14.85 23.15-14.85Q22.95-18.35 20.78-20.28 18.6-22.2 15.2-22.2ZM38.2 0L34.7 0 34.7-24.8 37.55-24.8 38-21.05 38.2-21.05Q39.2-22.8 41.37-24.1 43.55-25.4 46.45-25.4L46.45-25.4Q51-25.4 53.25-22.73 55.5-20.05 55.5-15.15L55.5-15.15 55.5 0 52 0 52-14.75Q52-18.2 50.45-20.15 48.9-22.1 45.7-22.1L45.7-22.1Q42.6-22.1 40.4-19.98 38.2-17.85 38.2-13.85L38.2-13.85 38.2 0ZM75.75-29.6L75.75-29.6Q74.5-29.6 73.57-30.53 72.65-31.45 72.65-32.7L72.65-32.7Q72.65-34 73.57-34.9 74.5-35.8 75.75-35.8L75.75-35.8Q77.05-35.8 77.95-34.9 78.84-34 78.84-32.7L78.84-32.7Q78.84-31.45 77.95-30.53 77.05-29.6 75.75-29.6ZM74.2 11L63.2 11 63.2 8 73.2 8Q74.2 8 74.2 7L74.2 7 74.2-20.8Q74.2-21.8 73.2-21.8L73.2-21.8 67.2-21.8 67.2-24.8 74.2-24.8Q77.7-24.8 77.7-21.3L77.7-21.3 77.7 7.5Q77.7 11 74.2 11L74.2 11ZM104.99 0.6L104.99 0.6Q101.54 0.6 98.89-1 96.24-2.6 94.74-5.53 93.24-8.45 93.24-12.4L93.24-12.4Q93.24-16.4 94.74-19.3 96.24-22.2 98.89-23.8 101.54-25.4 104.99-25.4L104.99-25.4Q108.44-25.4 111.09-23.8 113.74-22.2 115.24-19.3 116.74-16.4 116.74-12.4L116.74-12.4Q116.74-8.45 115.24-5.53 113.74-2.6 111.09-1 108.44 0.6 104.99 0.6ZM104.99-2.7L104.99-2.7Q107.29-2.7 109.12-3.75 110.94-4.8 112.04-6.95 113.14-9.1 113.14-12.4L113.14-12.4Q113.14-15.75 112.04-17.88 110.94-20 109.12-21.05 107.29-22.1 104.99-22.1L104.99-22.1Q102.74-22.1 100.89-21.05 99.04-20 97.94-17.88 96.84-15.75 96.84-12.4L96.84-12.4Q96.84-9.1 97.94-6.95 99.04-4.8 100.89-3.75 102.74-2.7 104.99-2.7ZM131.24 11L127.59 11 133.84-2.65 132.44-2.65 122.49-24.8 126.29-24.8 134.89-4.9 144.04-24.8 147.64-24.8 131.24 11Z" opacity="1" transform="matrix(1,0,0,1,0,0)" fill="#aaaaaa" class="slogan-text-1" data-fill-palette-color="secondary" id="text-1"></path></svg></g></svg></g></svg></g></svg></g></svg></g><defs></defs></svg><rect width="395.52" height="225.25124102634146" fill="none" stroke="none" visibility="hidden"></rect></g></svg></g></svg>